<svg xmlns="http://www.w3.org/2000/svg" version="1.1" xmlns:xlink="http://www.w3.org/1999/xlink" xmlns:svgjs="http://svgjs.dev/svgjs" width="1000" height="1000" viewBox="0 0 1000 1000"><rect width="1000" height="1000" fill="#ffffff"></rect><g transform="matrix(0.7,0,0,0.7,150.49189898851552,222.325020242915)"><svg viewBox="0 0 311 247" data-background-color="#ffffff" preserveAspectRatio="xMidYMid meet" height="794" width="1000" xmlns="http://www.w3.org/2000/svg" xmlns:xlink="http://www.w3.org/1999/xlink"><g id="tight-bounds" transform="matrix(1,0,0,1,-0.21854369346903013,-0.09999999999999432)"><svg viewBox="0 0 311.43708738693806 247.2" height="247.2" width="311.43708738693806"><g><svg viewBox="0 0 395.52000000000004 313.9399511482224" height="247.2" width="311.43708738693806"><g transform="matrix(1,0,0,1,0,233.23538574497363)"><svg viewBox="0 0 395.52000000000004 80.7045654032488" height="80.7045654032488" width="395.52000000000004"><g id="textblocktransform"><svg viewBox="0 0 395.52000000000004 80.7045654032488" height="80.7045654032488" width="395.52000000000004" id="textblock"><g><svg viewBox="0 0 395.52000000000004 80.7045654032488" height="80.7045654032488" width="395.52000000000004"><g transform="matrix(1,0,0,1,0,0)"><svg width="395.52000000000004" viewBox="0 -35.79999923706055 175.44000244140625 35.79999923706055" height="80.7045654032488" data-palette-color="#61be94"><path d="M17.85-2.15L27.55-2.15 27.55 0 0 0 0-2.15 5.5-2.15Q3.3-3.15 1.55-5L1.55-5 4.9-9.65Q8.3-6.4 11.55-6.4L11.55-6.4Q13.85-6.4 15.48-7.95 17.1-9.5 17.1-12.6L17.1-12.6 17.1-29.65 6-29.65 6-34.95 23-34.95 23-12.9Q23-5.1 17.85-2.15L17.85-2.15ZM63.25-2.15L69.05-2.15 69.05 0 57.9 0 54.4-7.95 36.9-7.95 33.4 0 22.25 0 22.25-2.15 28.05-2.15 42.5-34.95 48.8-34.95 63.25-2.15ZM39.3-13.4L52-13.4 45.65-27.8 39.3-13.4ZM94.45-2.15L101-2.15 101 0 64.2 0 64.2-2.15 75.3-2.15Q71.35-4.5 69.07-8.55 66.8-12.6 66.8-17.7L66.8-17.7Q66.8-25.4 72.12-30.6 77.45-35.8 85.57-35.8 93.7-35.8 99.15-29.8L99.15-29.8 95.4-25.7Q92.9-28.1 90.67-29.05 88.45-30 85.45-30L85.45-30Q80.15-30 76.55-26.58 72.95-23.15 72.95-17.82 72.95-12.5 76.52-8.93 80.1-5.35 85-5.35L85-5.35Q88.05-5.35 90.25-6.38 92.45-7.4 94.85-9.65L94.85-9.65 98.65-5.75Q96.45-3.35 94.45-2.15L94.45-2.15ZM128.99-2.15L139.39-2.15 139.39 0 100.99 0 100.99-2.15 111.34-2.15Q105.39-6.3 105.39-15.3L105.39-15.3 105.39-34.95 111.29-34.95 111.29-15.55Q111.29-10.75 113.69-7.95 116.09-5.15 120.19-5.15 124.29-5.15 126.69-7.95 129.09-10.75 129.09-15.55L129.09-15.55 129.09-34.95 134.99-34.95 134.99-15.3Q134.99-6.25 128.99-2.15L128.99-2.15ZM136.89-2.15L141.74-2.15 141.74-4.55 162.09-29.4 162.09-29.55 142.39-29.55 142.39-34.95 170.29-34.95 170.29-30.35 149.99-5.6 149.99-5.45 170.59-5.45 170.59-2.15 175.44-2.15 175.44 0 136.89 0 136.89-2.15Z" opacity="1" transform="matrix(1,0,0,1,0,0)" fill="#61be94" class="undefined-text-0" data-fill-palette-color="primary" id="text-0"></path></svg></g></svg></g></svg></g></svg></g><g transform="matrix(1,0,0,1,100.19471810965057,0)"><svg viewBox="0 0 195.1305637806989 195.1305637806989" height="195.1305637806989" width="195.1305637806989"><g><svg></svg></g><g id="icon-0"><svg viewBox="0 0 195.1305637806989 195.1305637806989" height="195.1305637806989" width="195.1305637806989"><g><path d="M0 97.565c0-53.884 43.681-97.565 97.565-97.565 53.884 0 97.565 43.681 97.566 97.565 0 53.884-43.681 97.565-97.566 97.566-53.884 0-97.565-43.681-97.565-97.566zM97.565 187.853c49.864 0 90.287-40.423 90.288-90.288 0-49.864-40.423-90.287-90.288-90.287-49.864 0-90.287 40.423-90.287 90.287 0 49.864 40.423 90.287 90.287 90.288z" data-fill-palette-color="tertiary" fill="#2ecc40" stroke="transparent"></path></g><g transform="matrix(1,0,0,1,42.3650722639601,42.36450106614616)"><svg viewBox="0 0 110.4004192527787 110.40156164840658" height="110.40156164840658" width="110.4004192527787"><g><svg xmlns="http://www.w3.org/2000/svg" xmlns:xlink="http://www.w3.org/1999/xlink" version="1.1" x="0" y="0" viewBox="2.1510000228881836 2.1500015258789062 95.84900665283203 95.8499984741211" enable-background="new 0 0 100 100" xml:space="preserve" height="110.40156164840658" width="110.4004192527787" class="icon-s-0" data-fill-palette-color="accent" id="s-0"><g fill="#3d9970" data-fill-palette-color="accent"><path fill="#3d9970" d="M98 50.075C98 76.543 76.542 98 50.075 98 23.606 98 2.151 76.543 2.151 50.075c0-26.468 21.456-47.925 47.924-47.925C76.542 2.15 98 23.607 98 50.075zM49.797 6.185c-24.373 0-44.133 19.758-44.133 44.131 0 24.375 19.76 44.133 44.133 44.133S93.93 74.691 93.93 50.316C93.93 25.943 74.17 6.185 49.797 6.185z" data-fill-palette-color="accent"></path><path fill="#3d9970" d="M90.862 50.438c0 22.613-18.331 40.945-40.944 40.945-22.614 0-40.945-18.332-40.945-40.945 0-22.614 18.332-40.945 40.945-40.945C72.531 9.493 90.862 27.825 90.862 50.438zM21.963 34.746l-8.713 3.712 4.68 8.552-6.778 7.423 8.068 5.97-3.066 9.198 9.681 2.258 1.131 9.683 9.843-1.776 4.679 8.231 8.229-5.811 8.067 5.811 4.843-8.393 9.681 2.259 1.131-10.329 9.844-1.771-3.067-9.521 8.067-5.809-6.454-7.262 4.519-8.875-9.037-3.873 1.129-9.843-10.166-0.162-2.904-9.52-9.197 3.872-6.454-7.1-6.454 7.262-9.197-4.034-3.228 9.52-9.843-0.323L21.963 34.746z" data-fill-palette-color="accent"></path><path fill="#3d9970" d="M76.019 60.886l2.098 5.809-6.132 1.13-10.166-7.906-1.291 1.452 8.876 9.519-0.322 5.973-5.971-1.454L57.001 63.82c-0.675 0.37-1.38 0.693-2.111 0.963l4.671 12.562-3.229 4.841-4.355-3.389-1.265-13.12c-0.382 0.031-0.769 0.05-1.156 0.05s-0.77-0.019-1.15-0.047l-0.624 13.278-4.841 3.551-3.066-5.002 4.348-12.723c-0.708-0.261-1.391-0.568-2.047-0.924l-5.852 11.547-5.809 1.292-0.646-5.486 8.913-9.851c-0.566-0.549-1.092-1.14-1.57-1.769l-10.085 8.068-5.809-0.967 1.613-5.648 12.263-5.002h0.001c-0.312-0.77-0.563-1.569-0.748-2.394l-12.646 3.2-4.518-3.388 3.549-4.035h13.253c0.032-0.624 0.105-1.24 0.209-1.843l-0.068-0.092-13.071-2.905-2.42-4.357 5.325-2.582 11.664 5.611c0.264-0.522 0.555-1.027 0.875-1.514L26.158 34.1l-0.484-5.647h5.809l7.906 9.521c0 0 0.21 0.074 0.498 0.165 0.478-0.383 0.978-0.738 1.5-1.063-0.114-0.391-0.222-0.717-0.222-0.717L34.71 26.354l1.453-5.809 5.325 2.098 4.246 12.578c0.531-0.134 1.073-0.24 1.625-0.317l-1.354-13.067 3.712-4.034 3.712 3.872L52.007 34.94c0.646 0.103 1.274 0.246 1.891 0.426l3.565-12.401 5.486-2.743 1.937 5.971-6.779 10.488 1.776 1.614 8.23-9.682h5.81L73.438 34.1l-10.489 7.261 0.161 1.292c0 0-0.006 0.022-0.016 0.058 0.146 0.264 0.288 0.532 0.423 0.805 1.75-0.791 11.856-5.704 11.856-5.704l5.325 2.582c0 0-1.936 4.68-2.42 4.68-0.426 0-10.897 1.985-13.471 2.474 0.126 0.717 0.203 1.451 0.227 2.198l13.403-0.154 3.712 4.197-4.681 3.387-12.85-3.331c-0.186 0.776-0.428 1.532-0.727 2.256L76.019 60.886zM49.879 38.618c-1.157 0-2.098 0.94-2.098 2.098 0 1.159 0.94 2.099 2.098 2.099s2.098-0.939 2.098-2.099C51.977 39.558 51.036 38.618 49.879 38.618zM56.494 41.361c-1.158 0-2.097 0.94-2.097 2.098 0 1.159 0.938 2.099 2.097 2.099 1.159 0 2.099-0.94 2.099-2.099C58.593 42.301 57.653 41.361 56.494 41.361zM59.399 48.138c-1.158 0-2.097 0.941-2.097 2.098 0 1.158 0.938 2.097 2.097 2.097 1.159 0 2.099-0.938 2.099-2.097C61.498 49.079 60.559 48.138 59.399 48.138zM56.655 54.916c-1.157 0-2.098 0.939-2.098 2.097 0 1.16 0.94 2.097 2.098 2.097 1.159 0 2.099-0.938 2.099-2.097C58.754 55.855 57.814 54.916 56.655 54.916zM49.879 57.98c-1.157 0-2.098 0.941-2.098 2.1 0 1.157 0.94 2.097 2.098 2.097s2.098-0.939 2.098-2.097C51.977 58.922 51.036 57.98 49.879 57.98zM43.263 54.916c-1.159 0-2.097 0.939-2.097 2.097 0 1.16 0.938 2.097 2.097 2.097 1.159 0 2.098-0.937 2.098-2.097C45.361 55.855 44.422 54.916 43.263 54.916zM40.197 48.138c-1.159 0-2.097 0.941-2.097 2.098 0 1.158 0.938 2.097 2.097 2.097 1.159 0 2.098-0.938 2.098-2.097C42.295 49.079 41.356 48.138 40.197 48.138zM42.779 41.361c-1.159 0-2.097 0.94-2.097 2.098 0 1.159 0.938 2.099 2.097 2.099s2.097-0.94 2.097-2.099C44.876 42.301 43.938 41.361 42.779 41.361zM49.717 47.494c-1.516 0-2.742 1.227-2.742 2.743 0 1.515 1.227 2.741 2.742 2.741s2.742-1.227 2.742-2.741C52.459 48.721 51.232 47.494 49.717 47.494z" data-fill-palette-color="accent"></path></g></svg></g></svg></g></svg></g></svg></g><g></g></svg></g><defs></defs></svg><rect width="311.43708738693806" height="247.2" fill="none" stroke="none" visibility="hidden"></rect></g></svg></g></svg>